<?xml version="1.0" encoding="utf-8"?>
<!-- Generator: Adobe Illustrator 24.1.2, SVG Export Plug-In . SVG Version: 6.00 Build 0)  -->
<svg version="1.1" id="Calque_1" xmlns="http://www.w3.org/2000/svg" xmlns:xlink="http://www.w3.org/1999/xlink" x="0px" y="0px"
	 viewBox="0 0 379.3 66.9" style="enable-background:new 0 0 379.3 66.9;" xml:space="preserve">
<style type="text/css">
	.st0{fill:#FF0000;stroke:#FF0000;stroke-miterlimit:10;}
</style>
<g>
	<path class="st0" d="M8.3,13.6l5.1-1.3l4.7,18.9l0.2,0c0.7-1.8,1.4-3.4,2-5l8.3-17.7L34.9,7L24.8,27.2l20.9,18.8l-6,1.5l-17.7-16
		l-2.7,5.2l3.7,15l-5.1,1.3L8.3,13.6z"/>
	<path class="st0" d="M86,32.2c2.6,10.4-3.5,16.8-10.3,18.5c-7.6,1.9-14.9-2.2-17.1-11.1c-2.4-9.4,2.4-16.5,10.2-18.4
		C76.9,19.1,83.9,23.6,86,32.2z M63.7,38.1c1.5,6.2,6.3,9.9,11.3,8.7c4.9-1.2,7.4-6.7,5.8-13.1C79.6,29,75.7,23.5,69.7,25
		S62.4,32.8,63.7,38.1z"/>
	<path class="st0" d="M105.6,32.4c-0.7-2.9-1.4-5.3-2.1-7.6l4.5-1.1l1.5,4.6l0.1,0c0.7-3,3.3-6.5,8-7.6c3.9-1,10.5-0.2,12.9,9.5
		l4.2,16.8l-5.1,1.3l-4-16.2c-1.1-4.5-3.8-7.9-8.6-6.7c-3.4,0.8-5.4,3.9-5.6,7c-0.1,0.7,0,1.6,0.2,2.5l4.2,16.9l-5.1,1.3L105.6,32.4
		z"/>
	<path class="st0" d="M174.9,18.8c0.4,2.1,0.8,4.4,1.7,7.8l4.1,16.4c1.6,6.5,1.3,10.7-0.8,13.9c-2.1,3.2-5.9,5-9.4,5.9
		c-3.4,0.8-7.3,1-10,0l0.3-4.2c2.2,0.7,5.3,1,8.8,0.2c5.2-1.3,8.4-5,6.6-12.1l-0.8-3.1l-0.1,0c-0.9,3-3.4,5.9-7.8,6.9
		c-7,1.7-13.5-2.9-15.4-10.7c-2.4-9.5,2.5-16.5,9-18.1c4.9-1.2,8.2,0.7,10,2.7l0.1,0l-0.8-4.3L174.9,18.8z M172.4,31.2
		c-0.2-0.9-0.5-1.6-0.9-2.3c-1.7-2.7-4.8-4.6-8.5-3.6c-4.9,1.2-7.4,6.2-5.7,12.7c1.4,5.5,5.3,9.4,10.8,8.1c3.1-0.8,5.5-3.5,5.8-7
		c0.1-0.9-0.1-2-0.3-2.8L172.4,31.2z"/>
	<path class="st0" d="M226.7,32.2c2.6,10.4-3.5,16.8-10.3,18.5c-7.6,1.9-14.9-2.2-17.1-11.1c-2.4-9.4,2.4-16.5,10.2-18.4
		C217.6,19.1,224.6,23.6,226.7,32.2z M204.5,38.1c1.5,6.2,6.3,9.9,11.3,8.7c4.9-1.2,7.4-6.7,5.8-13.1c-1.2-4.8-5.1-10.2-11.1-8.7
		C204.3,26.5,203.1,32.8,204.5,38.1z"/>
	<path class="st0" d="M249.4,46.7c1.8,0.6,4.7,1,7.3,0.4c3.7-0.9,5-3.2,4.4-5.6c-0.6-2.4-2.4-3.4-6.5-3.9c-5.5-0.5-8.6-2.7-9.4-6.1
		c-1.1-4.5,1.6-9.2,7.7-10.7c2.9-0.7,5.6-0.5,7.4,0l-0.4,4c-1.3-0.4-3.5-0.8-6.2-0.2c-3,0.8-4.3,2.9-3.8,5c0.6,2.3,2.5,3,6.5,3.4
		c5.4,0.6,8.5,2.5,9.5,6.7c1.2,4.9-1.7,9.4-8.4,11.1c-3.1,0.8-6.1,0.7-8.4,0.1L249.4,46.7z"/>
	<path class="st0" d="M287.1,46.7c1.8,0.6,4.7,1,7.3,0.4c3.7-0.9,5-3.2,4.4-5.6c-0.6-2.4-2.4-3.4-6.5-3.9c-5.5-0.5-8.6-2.7-9.4-6.1
		c-1.1-4.5,1.6-9.2,7.7-10.7c2.9-0.7,5.6-0.5,7.4,0l-0.4,4c-1.3-0.4-3.5-0.8-6.2-0.2c-3,0.8-4.3,2.9-3.8,5c0.6,2.3,2.5,3,6.5,3.4
		c5.4,0.6,8.5,2.5,9.5,6.7c1.2,4.9-1.7,9.4-8.4,11.1c-3.1,0.8-6.1,0.7-8.4,0.1L287.1,46.7z"/>
	<path class="st0" d="M342.4,48.5l-1.3-3.4l-0.2,0c-1,2.6-3.6,5.3-7.6,6.3c-5.7,1.4-9.6-1.9-10.6-5.9c-1.7-6.8,3.4-12,14.3-14.7
		l-0.1-0.6c-0.6-2.3-2.3-6.4-8-4.9c-2.6,0.7-5.2,2.1-6.8,3.9l-2-3.1c2-2.1,5.1-3.9,8.6-4.8c8.6-2.1,12.2,3.2,13.6,8.9l2.6,10.5
		c0.6,2.4,1.3,4.8,2.1,6.6L342.4,48.5z M338,34.4c-5.6,1.3-11.7,3.8-10.4,9.3c0.8,3.3,3.4,4.3,6.1,3.7c3.7-0.9,5.4-3.8,5.6-6.4
		c0-0.6,0-1.2-0.1-1.7L338,34.4z"/>
	<path class="st0" d="M367.5,47.7c-0.5-2.2,0.5-4,2.6-4.5c2-0.5,3.8,0.7,4.3,2.8c0.5,2.1-0.4,4-2.6,4.5
		C369.8,51,368,49.8,367.5,47.7z"/>
</g>
<g>
</g>
<g>
</g>
<g>
</g>
<g>
</g>
<g>
</g>
</svg>
